<?xml version="1.0" encoding="utf-8"?>
<!-- Generator: Adobe Illustrator 21.1.0, SVG Export Plug-In . SVG Version: 6.00 Build 0)  -->
<svg version="1.1" xmlns="http://www.w3.org/2000/svg" xmlns:xlink="http://www.w3.org/1999/xlink" x="0px" y="0px"
	 viewBox="0 0 23 23" style="enable-background:new 0 0 23 23;" xml:space="preserve">
<style type="text/css">
	.st0{display:none;}
	.st1{display:inline;stroke:#FFFFFF;stroke-miterlimit:10;}
	.st2{display:inline;}
	.st3{fill:none;stroke:#FFFFFF;stroke-miterlimit:10;}
	.st4{fill:none;stroke:#1D1D1D;stroke-miterlimit:10;}
	.st5{fill:none;stroke:#1D1D1D;}
	.st6{fill:#1D1D1D;}
	.st7{fill:none;stroke:#5E5E5E;stroke-miterlimit:10;}
	.st8{fill:none;stroke:#5E5E5E;}
	.st9{fill:#5E5E5E;}
	.st10{display:inline;fill:none;stroke:#FFFFFF;stroke-miterlimit:10;}
	.st11{display:inline;fill:none;stroke:#FFFFFF;stroke-linecap:round;stroke-linejoin:round;stroke-miterlimit:10;}
	.st12{display:inline;fill:none;stroke:#FFFFFF;stroke-linejoin:round;stroke-miterlimit:10;}
	.st13{fill:none;stroke:#FFFFFF;stroke-linecap:round;stroke-linejoin:round;stroke-miterlimit:10;}
	.st14{display:inline;fill:none;stroke:#1E1E1E;stroke-miterlimit:10;}
	.st15{fill:#FFFFFF;stroke:#AAA8A9;stroke-width:3;}
	.st16{fill:none;stroke:#00B0AD;stroke-width:3;stroke-linecap:round;stroke-linejoin:round;stroke-miterlimit:10;}
	.st17{display:inline;fill:#FFFFFF;stroke:#AAA8A8;stroke-width:3;}
	.st18{fill:none;stroke:#00AFAC;stroke-width:2.915;stroke-linejoin:round;stroke-miterlimit:10;}
	.st19{fill:none;stroke:#1E1E1E;stroke-linejoin:round;stroke-miterlimit:10;}
	.st20{fill:none;stroke:#1E1E1E;stroke-linecap:round;stroke-linejoin:round;stroke-miterlimit:10;}
	.st21{fill:none;stroke:#1E1E1E;stroke-miterlimit:10;}
	.st22{display:inline;fill:none;stroke:#1E1E1E;stroke-linecap:round;stroke-linejoin:round;stroke-miterlimit:10;}
</style>
<g id="Layer_1">
	<g id="Layer_2_1_" class="st0">
		<rect x="-3.7" y="-2.8" class="st1" width="30" height="30"/>
	</g>
	<g id="Layer_1_2_" class="st0">
		<g id="Layer_1_1_" class="st2">
			<g>
				<circle class="st3" cx="11.5" cy="11.5" r="11"/>
				<path class="st3" d="M11.5,16.5L17,7.9c0,0-3,1.1-5.5,1S6,7.9,6,7.9L11.5,16.5z"/>
			</g>
		</g>
		<g id="Layer_2" class="st2">
			<g>
				<circle class="st4" cx="1245.3" cy="39.3" r="11"/>
				<g id="Layer_3_1_">
					<ellipse class="st5" cx="1244" cy="37.9" rx="5" ry="5"/>
				</g>
				<path class="st6" d="M1247.6,40.7l3.5,3.5c0,0,0.8,0.7,0,1.5s-1.6-0.3-1.6-0.3l-3.3-3.3"/>
			</g>
			<g>
				<circle class="st7" cx="11.5" cy="11.5" r="11"/>
				<g id="Layer_3_2_">
					<ellipse class="st8" cx="10.1" cy="10.1" rx="5" ry="5"/>
				</g>
				<path class="st9" d="M13.8,12.9l3.5,3.5c0,0,0.8,0.7,0,1.5s-1.6-0.3-1.6-0.3l-3.3-3.3"/>
			</g>
		</g>
	</g>
	<g id="top" class="st0">
		<circle class="st10" cx="11.5" cy="11.5" r="11"/>
		<path class="st10" d="M7.2,16.5c0,0,2.3-0.7,4.3-0.8c1.9-0.1,4.3,0.8,4.3,0.8l-4.3-6.6L7.2,16.5z"/>
		<g id="Layer_2_2_" class="st2">
			<g>
				<circle class="st4" cx="1245.3" cy="39.3" r="11"/>
				<g id="Layer_3_4_">
					<ellipse class="st5" cx="1244" cy="37.9" rx="5" ry="5"/>
				</g>
				<path class="st6" d="M1247.6,40.7l3.5,3.5c0,0,0.8,0.7,0,1.5s-1.6-0.3-1.6-0.3l-3.3-3.3"/>
			</g>
			<g>
				<circle class="st7" cx="11.5" cy="11.5" r="11"/>
				<g id="Layer_3_3_">
					<ellipse class="st8" cx="10.1" cy="10.1" rx="5" ry="5"/>
				</g>
				<path class="st9" d="M13.8,12.9l3.5,3.5c0,0,0.8,0.7,0,1.5s-1.6-0.3-1.6-0.3l-3.3-3.3"/>
			</g>
		</g>
		<polyline class="st11" points="15.8,6.9 15.8,6.9 7.2,6.9 7.2,6.9 		"/>
	</g>
	<g id="email" class="st0">
		<circle class="st10" cx="11.5" cy="11.5" r="11"/>
		<g id="Layer_2_3_" class="st2">
			<g>
				<circle class="st4" cx="1245.3" cy="39.3" r="11"/>
				<g id="Layer_3_6_">
					<ellipse class="st5" cx="1244" cy="37.9" rx="5" ry="5"/>
				</g>
				<path class="st6" d="M1247.6,40.7l3.5,3.5c0,0,0.8,0.7,0,1.5s-1.6-0.3-1.6-0.3l-3.3-3.3"/>
			</g>
			<g>
				<circle class="st7" cx="11.5" cy="11.5" r="11"/>
				<g id="Layer_3_5_">
					<ellipse class="st8" cx="10.1" cy="10.1" rx="5" ry="5"/>
				</g>
				<path class="st9" d="M13.8,12.9l3.5,3.5c0,0,0.8,0.7,0,1.5s-1.6-0.3-1.6-0.3l-3.3-3.3"/>
			</g>
		</g>
		<rect x="4.4" y="6.4" class="st12" width="14.2" height="9.8"/>
		<polyline class="st12" points="4.4,6.4 11.3,11.5 18.6,6.4 		"/>
	</g>
	<g id="phone" class="st0">
		<circle class="st10" cx="11.5" cy="11.5" r="11"/>
		<g id="Layer_2_4_" class="st2">
			<g>
				<circle class="st4" cx="1245.3" cy="39.3" r="11"/>
				<g id="Layer_3_8_">
					<ellipse class="st5" cx="1244" cy="37.9" rx="5" ry="5"/>
				</g>
				<path class="st6" d="M1247.6,40.7l3.5,3.5c0,0,0.8,0.7,0,1.5s-1.6-0.3-1.6-0.3l-3.3-3.3"/>
			</g>
			<g>
				<circle class="st7" cx="11.5" cy="11.5" r="11"/>
				<g id="Layer_3_7_">
					<ellipse class="st8" cx="10.1" cy="10.1" rx="5" ry="5"/>
				</g>
				<path class="st9" d="M13.8,12.9l3.5,3.5c0,0,0.8,0.7,0,1.5s-1.6-0.3-1.6-0.3l-3.3-3.3"/>
			</g>
		</g>
		<path class="st12" d="M14.8,8.2l-1.5-1.5l2.2-2.4l2.2,2.3c0,0,1.1,1,0,2.5c-1.4,1.9-3.8,4.4-3.8,4.4s-2.5,2.5-4.4,3.8
			c-1.5,1.1-2.5,0-2.5,0l-2.3-2.2L7,13l1.5,1.5L14.8,8.2z"/>
	</g>
	<g id="link" class="st0">
		<circle class="st10" cx="11.5" cy="11.5" r="11"/>
		<g id="Layer_2_5_" class="st2">
			<g>
				<circle class="st4" cx="1245.3" cy="39.3" r="11"/>
				<g id="Layer_3_10_">
					<ellipse class="st5" cx="1244" cy="37.9" rx="5" ry="5"/>
				</g>
				<path class="st6" d="M1247.6,40.7l3.5,3.5c0,0,0.8,0.7,0,1.5s-1.6-0.3-1.6-0.3l-3.3-3.3"/>
			</g>
			<g>
				<circle class="st7" cx="11.5" cy="11.5" r="11"/>
				<g id="Layer_3_9_">
					<ellipse class="st8" cx="10.1" cy="10.1" rx="5" ry="5"/>
				</g>
				<path class="st9" d="M13.8,12.9l3.5,3.5c0,0,0.8,0.7,0,1.5s-1.6-0.3-1.6-0.3l-3.3-3.3"/>
			</g>
		</g>
		<circle class="st10" cx="11.5" cy="11.5" r="11"/>
		<g class="st2">
			<path class="st13" d="M11.7,8.7l2.6-2.6c0.5-0.5,1.3-0.5,1.8,0L17,7c0.5,0.5,0.5,1.3,0,1.8l-3.8,3.8c-0.5,0.5-1.3,0.5-1.8,0
				L10.8,12"/>
		</g>
		<g class="st2">
			<path class="st13" d="M11.3,14.3l-2.6,2.6c-0.5,0.5-1.3,0.5-1.8,0L6,16c-0.5-0.5-0.5-1.3,0-1.8l3.8-3.8c0.5-0.5,1.3-0.5,1.8,0
				l0.5,0.5"/>
		</g>
	</g>
	<g id="teaching" class="st0">
		<circle class="st10" cx="11.5" cy="11.5" r="11"/>
		<g id="Layer_2_6_" class="st2">
			<g>
				<circle class="st4" cx="1245.3" cy="39.3" r="11"/>
				<g id="Layer_3_12_">
					<ellipse class="st5" cx="1244" cy="37.9" rx="5" ry="5"/>
				</g>
				<path class="st6" d="M1247.6,40.7l3.5,3.5c0,0,0.8,0.7,0,1.5s-1.6-0.3-1.6-0.3l-3.3-3.3"/>
			</g>
			<g>
				<circle class="st7" cx="11.5" cy="11.5" r="11"/>
				<g id="Layer_3_11_">
					<ellipse class="st8" cx="10.1" cy="10.1" rx="5" ry="5"/>
				</g>
				<path class="st9" d="M13.8,12.9l3.5,3.5c0,0,0.8,0.7,0,1.5s-1.6-0.3-1.6-0.3l-3.3-3.3"/>
			</g>
		</g>
		<circle class="st14" cx="11.5" cy="11.5" r="11"/>
		<g id="Layer_1_4_" class="st2">
			<g id="Layer_1_3_" class="st0">
				<g class="st2">
					<ellipse class="st15" cx="12.9" cy="12" rx="11.3" ry="11.3"/>
					<path class="st16" d="M9.7,8.9h2.8 M9.7,10.3H16 M9.7,11.7H16 M16,16.8v4.1l-1.4-0.7l-1.4,0.7v-4.1 M14.6,4.7v3.5h3.5 M16,18.1
						h2.1V8.2l-3.5-3.5h-7v13.4h5.6 M16.7,15.3c0,1.2-0.9,2.1-2.1,2.1s-2.1-0.9-2.1-2.1s0.9-2.1,2.1-2.1S16.7,14.1,16.7,15.3z"/>
				</g>
			</g>
			<g id="Layer_2_7_" class="st0">
				<ellipse class="st17" cx="12.8" cy="12" rx="11.3" ry="11.3"/>
				<g class="st2">
					<path class="st18" d="M20.5,11.8c-2.4,0.7-5,1.1-7.6,1.1s-5.2-0.4-7.5-1.1 M13.6,14.1h-1.3v-2.2h1.3V14.1z M10.6,7.5v-1
						c0-0.7,0.5-1.2,1.2-1.2H14c0.7,0,1.2,0.5,1.2,1.2v1 M19.9,18.1h-14c-0.3,0-0.6-0.3-0.6-0.6V8.1c0-0.3,0.3-0.6,0.6-0.6h14
						c0.3,0,0.6,0.3,0.6,0.6v9.4C20.5,17.8,20.2,18.1,19.9,18.1z"/>
				</g>
			</g>
			<path class="st19" d="M9.4,13.1c1.1,0,2.1-0.9,2.1-2.1V9.7c0-1.1-0.9-2.1-2.1-2.1S7.3,8.5,7.3,9.7V11C7.3,12.2,8.3,13.1,9.4,13.1
				z M12.7,17.9H9.6H9.4l0,0H6.1c-0.9,0-0.9-0.8-0.9-0.8c0-0.1,0-0.2,0-0.3v-1.5c0-0.1,0.1-0.2,0.1-0.2l2.3-0.8c0.1,0,0.2,0,0.3,0.1
				l1.4,1.4c0.1,0.1,0.2,0.1,0.2,0l1.4-1.4c0.1-0.1,0.2-0.1,0.3-0.1l2.3,0.8c0.1,0,0.1,0.1,0.1,0.2v1.5c0,0.1,0,0.2,0,0.3
				C13.6,17.1,13.6,17.9,12.7,17.9z"/>
			<path class="st20" d="M9.8,6.1c0-0.4,0-1.4,1.1-1.4c0.1,0,0.2,0,0.4,0c1.7,0,5.2,0,5.2,0s1.1-0.1,1.1,1.4c0,1.7,0,4.3,0,4.3
				s0,1.1-0.9,1.1c-1.1,0-3.5,0-3.5,0"/>
		</g>
	</g>
	<circle class="st3" cx="11.5" cy="11.5" r="11"/>
	<g id="Layer_2_9_" class="st0">
		<g class="st2">
			<circle class="st4" cx="1245.3" cy="39.3" r="11"/>
			<g id="Layer_3_14_">
				<ellipse class="st5" cx="1244" cy="37.9" rx="5" ry="5"/>
			</g>
			<path class="st6" d="M1247.6,40.7l3.5,3.5c0,0,0.8,0.7,0,1.5s-1.6-0.3-1.6-0.3l-3.3-3.3"/>
		</g>
		<g class="st2">
			<circle class="st7" cx="11.5" cy="11.5" r="11"/>
			<g id="Layer_3_13_">
				<ellipse class="st8" cx="10.1" cy="10.1" rx="5" ry="5"/>
			</g>
			<path class="st9" d="M13.8,12.9l3.5,3.5c0,0,0.8,0.7,0,1.5s-1.6-0.3-1.6-0.3l-3.3-3.3"/>
		</g>
	</g>
	<circle class="st21" cx="11.5" cy="11.5" r="11"/>
	<g id="research" class="st0">
		<circle class="st14" cx="11.5" cy="11.5" r="11"/>
		<polyline class="st22" points="15.8,17.9 15.8,17.9 7.2,17.9 7.2,17.9 		"/>
		<polyline class="st22" points="17.6,10.8 17.6,10.8 13.4,15.1 13.4,15.1 		"/>
		<g class="st2">
			<path class="st20" d="M15.5,12.9l1.4,1.4l-1.2,1.2c-2.2,2.2-5.8,2.2-8-0.1c-2.2-2.2-2.2-5.8,0-8"/>
		</g>
		<polyline class="st22" points="11.5,9.1 12.3,8.2 11.7,6.7 9.3,4.2 8.1,5.4 8.4,5 7.2,6.2 9.7,8.7 11.3,9.3 12.1,8.5 		"/>
	</g>
	<g id="publications" class="st0">
		<circle class="st14" cx="11.5" cy="11.5" r="11"/>
		<path class="st22" d="M4.5,7.2C4.5,6.4,6,5.7,8,5.7s3.5,0.7,3.5,1.5c0,0.1,0,9.5,0,9.5s-1.9-1-3.5-1s-3.5,1.1-3.5,1.1
			S4.5,7.4,4.5,7.2z"/>
		<path class="st22" d="M11.5,7.2c0-0.8,1.6-1.5,3.5-1.5s3.5,0.7,3.5,1.5c0,0.1,0,9.5,0,9.5s-1.9-1.1-3.5-1.1s-3.5,1.1-3.5,1.1
			S11.5,7.4,11.5,7.2z"/>
	</g>
	<g id="editorial" class="st0">
		<circle class="st14" cx="11.5" cy="11.5" r="11"/>
		<g class="st2">
			<polyline class="st20" points="12.5,5.3 5.8,5.3 5.8,17.7 16.9,17.7 16.9,10.3 			"/>
		</g>
		<polygon class="st22" points="10.5,10.7 16.3,4.9 17.8,6.4 12,12.2 9.7,13 		"/>
	</g>
</g>
<g id="Layer_4">
	<g>
		<path id="f_1_" class="st19" d="M12.3,19.1v-7h2.3L15,9.5h-2.7V7.7c0-0.8,0.2-1.3,1.3-1.3l1.4,0V4c-0.2,0-1.1-0.1-2.1-0.1
			c-2.1,0-3.5,1.3-3.5,3.6v2H7.1v2.7h2.3v7H12.3z"/>
	</g>
</g>
<g id="Layer_3" class="st0">
	<g id="layer1" transform="translate(-539.17946,-568.85777)" class="st2">
		<path id="path3611" class="st19" d="M547.8,586.5c5.5,0,8.5-4.6,8.5-8.5c0-0.1,0-0.3,0-0.4c0.6-0.4,1.1-1,1.5-1.6
			c-0.5,0.2-1.1,0.4-1.7,0.5c0.6-0.4,1.1-1,1.3-1.7c-0.6,0.3-1.2,0.6-1.9,0.7c-0.5-0.6-1.3-0.9-2.2-0.9c-1.7,0-3,1.3-3,3
			c0,0.2,0,0.5,0.1,0.7c-2.5-0.1-4.7-1.3-6.2-3.1c-0.3,0.4-0.4,1-0.4,1.5c0,1,0.5,2,1.3,2.5c-0.5,0-1-0.2-1.4-0.4c0,0,0,0,0,0
			c0,1.5,1,2.7,2.4,2.9c-0.3,0.1-0.5,0.1-0.8,0.1c-0.2,0-0.4,0-0.6-0.1c0.4,1.2,1.5,2.1,2.8,2.1c-1,0.8-2.3,1.3-3.7,1.3
			c-0.2,0-0.5,0-0.7,0C544.5,586,546.1,586.5,547.8,586.5"/>
	</g>
</g>
</svg>
