<?xml version="1.0" encoding="utf-8"?>
<!-- Generator: Adobe Illustrator 21.1.0, SVG Export Plug-In . SVG Version: 6.00 Build 0)  -->
<svg version="1.1" id="Layer_1" xmlns="http://www.w3.org/2000/svg" xmlns:xlink="http://www.w3.org/1999/xlink" x="0px" y="0px"
	 viewBox="0 0 23 23" style="enable-background:new 0 0 23 23;" xml:space="preserve">
<style type="text/css">
	.st0{fill:none;stroke:#FFFFFF;stroke-miterlimit:10;}
	.st1{display:none;}
	.st2{display:inline;}
	.st3{fill:none;stroke:#1D1D1D;stroke-miterlimit:10;}
	.st4{fill:none;stroke:#1D1D1D;}
	.st5{fill:#1D1D1D;}
	.st6{fill:none;stroke:#5E5E5E;stroke-miterlimit:10;}
	.st7{fill:none;stroke:#5E5E5E;}
	.st8{fill:#5E5E5E;}
</style>
<g id="Layer_1_1_">
	<g>
		<circle class="st0" cx="11.5" cy="11.5" r="11"/>
		<path class="st0" d="M16.5,11.5L7.9,6c0,0,1.1,3,1,5.5s-1,5.5-1,5.5L16.5,11.5z"/>
	</g>
</g>
<g id="Layer_2" class="st1">
	<g class="st2">
		<circle class="st3" cx="1245.3" cy="39.3" r="11"/>
		<g id="Layer_3_1_">
			<ellipse class="st4" cx="1244" cy="37.9" rx="5" ry="5"/>
		</g>
		<path class="st5" d="M1247.6,40.7l3.5,3.5c0,0,0.8,0.7,0,1.5s-1.6-0.3-1.6-0.3l-3.3-3.3"/>
	</g>
	<g class="st2">
		<circle class="st6" cx="11.5" cy="11.5" r="11"/>
		<g id="Layer_3_2_">
			<ellipse class="st7" cx="10.1" cy="10.1" rx="5" ry="5"/>
		</g>
		<path class="st8" d="M13.8,12.9l3.5,3.5c0,0,0.8,0.7,0,1.5s-1.6-0.3-1.6-0.3l-3.3-3.3"/>
	</g>
</g>
</svg>
