<?xml version="1.0" encoding="utf-8"?>
<!-- Generator: Adobe Illustrator 24.1.2, SVG Export Plug-In . SVG Version: 6.00 Build 0)  -->
<svg version="1.1" xmlns="http://www.w3.org/2000/svg" xmlns:xlink="http://www.w3.org/1999/xlink" x="0px" y="0px"
	 viewBox="0 0 16 16" style="enable-background:new 0 0 16 16;" xml:space="preserve">
<style type="text/css">
	.st0{fill:#2B327A;}
</style>
<g id="Layer_1">
</g>
<g id="Layer_2">
	<g>
		<path class="st0" d="M7,9.9c0,0-0.1,0-0.1,0c0,0-0.1,0-0.2,0C6.6,9.9,6.4,10,6.4,10c0,0,0.2-0.1,0.2-0.1c0,0,0,0,0,0
			c0,0,0,0,0.1,0c0,0,0.1,0,0.1,0C6.8,9.9,6.9,9.9,7,9.9C7,9.9,7,9.9,7,9.9z"/>
		<path class="st0" d="M5.2,4.6L5,4.5c0,0,0,0,0.1,0c0,0,0,0,0,0C5.1,4.6,5.1,4.6,5.2,4.6C5.1,4.6,5.1,4.6,5.2,4.6
			C5.1,4.6,5.1,4.6,5.2,4.6c0,0.1,0,0.2,0,0.2V4.6z"/>
		<path class="st0" d="M4.6,2c0,0-0.1,0-0.1,0c0,0-0.1,0-0.1,0c0,0-0.2,0.1-0.2,0.1c0,0,0.1,0,0.2,0c0,0,0,0,0,0c0,0,0,0,0.1,0
			c0,0,0.1,0,0.1,0C4.5,2,4.6,2,4.6,2C4.6,2,4.6,2,4.6,2z"/>
		<path class="st0" d="M7.5,13.2C7.5,13.2,7.5,13.2,7.5,13.2C7.5,13.2,7.5,13.2,7.5,13.2C7.6,13.2,7.6,13.3,7.5,13.2
			C7.6,13.3,7.6,13.3,7.5,13.2c0.1,0.1,0.1,0.2,0.1,0.2v-0.2L7.5,13.2C7.5,13.1,7.5,13.2,7.5,13.2z"/>
		<polygon class="st0" points="7.9,0.1 7.9,0.1 7.9,0.1 		"/>
		<path class="st0" d="M9.5,2c0,0-0.1,0-0.1,0c0,0-0.1,0-0.1,0C9.2,1.9,9,2,9,2c0,0,0.1,0,0.2,0c0,0,0,0,0,0c0,0,0,0,0.1,0
			c0,0,0.1,0,0.1,0C9.4,2,9.5,2,9.5,2C9.5,2,9.5,2,9.5,2z"/>
		<path class="st0" d="M13,0.4c0,0-2-0.3-5.1-0.3S2.8,0.4,2.8,0.4s-1.1,7.8,2,12.5c1,1.6,3.1,3.1,3.1,3.1h0l0,0l0,0l0,0l0,0h0
			c0,0,2-1.6,3.1-3.1C14.1,8.2,13,0.4,13,0.4z M4.7,4.4C4.3,4.2,3.9,3.6,4.2,3.1c0.3-0.5,0.3-0.7,0.2-0.8c0-0.1-0.4,0-0.4,0
			s0,0-0.1,0l0-0.1c0,0,0-0.1-0.1,0c0,0,0,0,0,0.1c0,0,0,0.1,0,0.1c0,0.1,0,0.2-0.1,0.2c0,0,0,0,0,0c0,0,0,0,0,0.1
			c0,0,0,0.1-0.1,0.1c0,0,0,0.1,0,0.1c0,0,0,0,0-0.1c0,0,0,0,0,0c0,0,0,0.1-0.1,0.1c0,0-0.1,0-0.1,0c0,0,0,0-0.1,0c0,0,0,0,0,0
			c0,0,0,0,0-0.1c0,0,0-0.1,0-0.1c0,0-0.1,0-0.1-0.1c0.1,0,0.1-0.1,0.2-0.2c0,0,0.1,0,0.2,0c0-0.1,0-0.2,0.1-0.2c0,0-0.1,0-0.1-0.1
			c0,0-0.3-0.1-0.4,0.1c0,0-0.2-0.4,0.7-0.3c0,0,0.2-0.1,0.4-0.1c0.5,0.1,0.7,0,0.8-0.1c0,0-0.2,0.4-0.4,0.6
			C4.7,2.4,4.3,3.1,4.8,3.2C4.7,2.9,4.6,2.7,5,2.9c0,0,0.4,0.3,0.7-0.3c0,0-0.1-0.1,0.1-0.2c0.2,0,1.3,0,1.8-0.4
			c0,0-0.1,0.4-0.2,0.8L7,2.7l0.3,0.2C7.2,3.1,7.1,3.3,7,3.4L6.7,3.2l0.3,0.3C6.8,3.7,6.6,3.8,6.3,3.9L6.1,3.5l0.1,0.5
			c-0.1,0-0.2,0-0.3,0c0,0-0.1,0-0.1,0c0.3,0.3,0.5,0.6,0.5,1c0,0-0.2-0.4-0.5-0.5l0.1,0.2c0,0-0.3-0.2-0.5-0.1c0,0,0,0,0,0
			c-0.2,0.3,0,0.7,0,0.7c0.2,0.1,0.5,0.2,0.5,0.2c-0.4,0-0.6-0.1-0.9,0c-0.2,0-0.3,0.1-0.3,0.1c0-0.3,0.6-0.4,0.6-0.4
			C5.2,4.8,4.9,4.5,4.7,4.4z M10.4,10.9l-0.5-0.1l0.4,0.2c-0.1,0.2-0.2,0.5-0.4,0.7l-0.4-0.2l0.3,0.3c-0.2,0.2-0.5,0.4-0.8,0.5
			l-0.3-0.6L9,12.4c-0.1,0-0.2,0-0.3,0c0,0-0.1,0-0.1,0c0.3,0.4,0.6,0.8,0.6,1.3c0,0-0.2-0.5-0.7-0.6l0.1,0.3c0,0-0.4-0.2-0.7-0.2
			c0,0,0,0,0,0c-0.2,0.4-0.1,0.9-0.1,0.9c0.3,0.1,0.6,0.2,0.6,0.2c-0.5-0.1-0.7-0.1-1.1,0c-0.2,0-0.4,0.2-0.4,0.2
			c0-0.3,0.8-0.5,0.8-0.5c0.1-0.5-0.3-0.8-0.5-1c-0.6-0.3-1-1-0.6-1.7c0.3-0.6,0.4-0.9,0.3-1c-0.1-0.1-0.5-0.1-0.5-0.1s-0.1,0-0.1,0
			l0-0.2c0,0,0-0.1-0.1,0c0,0,0,0,0,0.1c0,0.1,0,0.1,0,0.1c0,0.1,0,0.2-0.1,0.3c0,0,0,0,0.1,0.1c0,0,0,0,0,0.1
			c0,0.1-0.1,0.1-0.1,0.2c0,0,0,0.1,0,0.1c0,0,0-0.1,0-0.1c0,0,0,0,0,0C6,11,6,11,5.9,11c0,0-0.1,0-0.1,0c0,0-0.1,0-0.1,0
			c0,0,0,0,0-0.1c0,0,0,0,0-0.1c0,0,0-0.1,0-0.1c-0.1,0-0.1,0-0.1-0.1c0.1,0,0.1-0.2,0.2-0.2c0,0,0.1,0,0.2,0c0-0.1,0.1-0.2,0.1-0.3
			c0,0-0.1-0.1-0.1-0.1c0,0-0.4-0.1-0.5,0.1c0,0-0.3-0.5,0.9-0.4c0,0,0.2-0.2,0.5-0.1c0.6,0.1,0.9,0,0.9-0.1c0,0-0.3,0.5-0.5,0.7
			c-0.2,0.2-0.8,1.1-0.1,1.2c-0.2-0.3-0.2-0.6,0.2-0.3c0,0,0.5,0.4,0.9-0.4c0,0-0.1-0.2,0.2-0.2c0.2-0.1,1.6,0,2.3-0.5
			C10.7,9.9,10.6,10.4,10.4,10.9z M10.7,8.5l-0.2-0.1l0.1,0.2c0,0,0,0-0.1-0.1l0,0.1c0,0-0.1,0-0.1,0c0,0-1.2-1-2.5,0.2
			C7.8,9,7.8,9,7.6,8.9C6.5,7.7,5.1,8.6,5.1,8.6L5,8.6l0-0.1C5,8.5,5,8.5,5,8.5L5,8.3C4.9,8.4,4.9,8.4,4.9,8.4l0.1-0.2
			c-0.1,0-0.1,0.1-0.1,0.1l0.8-1.9c1.1-0.9,2.3,0,2.3,0s1.3-0.9,2.2,0l0.7,1.9l-0.1,0L10.7,8.5z M12.3,2.8l-0.4-0.1L12.3,2.8
			c-0.1,0.3-0.2,0.5-0.4,0.6l-0.3-0.2l0.3,0.3c-0.2,0.2-0.4,0.3-0.6,0.4L11,3.5l0.1,0.5c-0.1,0-0.2,0-0.3,0c0,0-0.1,0-0.1,0
			c0.3,0.3,0.5,0.6,0.5,1c0,0-0.2-0.4-0.5-0.5l0.1,0.2c0,0-0.3-0.2-0.5-0.1c0,0,0,0,0,0c-0.2,0.3,0,0.7,0,0.7
			c0.2,0.1,0.5,0.2,0.5,0.2c-0.4,0-0.6-0.1-0.9,0c-0.2,0-0.3,0.1-0.3,0.1c0-0.3,0.6-0.4,0.6-0.4c0-0.4-0.3-0.7-0.4-0.8
			C9.2,4.2,8.9,3.6,9.2,3.1c0.3-0.5,0.3-0.7,0.2-0.8c0-0.1-0.4,0-0.4,0s0,0-0.1,0l0-0.1c0,0,0-0.1-0.1,0c0,0,0,0,0,0.1
			c0,0,0,0.1,0,0.1c0,0.1,0,0.2-0.1,0.2c0,0,0,0,0,0c0,0,0,0,0,0.1c0,0,0,0.1-0.1,0.1c0,0,0,0.1,0,0.1c0,0,0,0,0-0.1c0,0,0,0,0,0
			c0,0,0,0.1-0.1,0.1c0,0-0.1,0-0.1,0c0,0,0,0-0.1,0c0,0,0,0,0,0c0,0,0,0,0-0.1c0,0,0-0.1,0-0.1c0,0-0.1,0-0.1-0.1
			c0.1,0,0.1-0.1,0.2-0.2c0,0,0.1,0,0.2,0c0-0.1,0-0.2,0.1-0.2c0,0-0.1,0-0.1-0.1c0,0-0.3-0.1-0.4,0.1c0,0-0.2-0.4,0.7-0.3
			c0,0,0.2-0.1,0.4-0.1c0.5,0.1,0.7,0,0.8-0.1c0,0-0.2,0.4-0.4,0.6C9.7,2.4,9.2,3.1,9.7,3.2C9.6,2.9,9.6,2.7,9.9,2.9
			c0,0,0.4,0.3,0.7-0.3c0,0-0.1-0.1,0.1-0.2c0.2,0,1.3,0,1.8-0.4C12.5,2,12.4,2.4,12.3,2.8z"/>
		<path class="st0" d="M10,4.6C10,4.6,10,4.6,10,4.6C10,4.6,10,4.6,10,4.6C10,4.6,10,4.6,10,4.6C10,4.6,10,4.6,10,4.6
			c0.1,0.1,0.1,0.1,0.1,0.2V4.6L10,4.6C9.9,4.5,9.9,4.6,10,4.6z"/>
	</g>
	<g>
		<g>
			<path class="st0" d="M5.9,6.9L5.9,6.9C6,6.9,6,6.9,6,6.8l0,0c0,0,0,0.1,0,0.1C6,7,6,7,6,7.1l0,0C6,7,6,7,5.9,6.9L5.9,6.9L5.8,7.2
				c0,0.1,0,0.1,0.1,0.1l0,0c-0.1,0-0.1,0-0.2,0c-0.1,0-0.1,0-0.2,0l0,0c0.1,0,0.1,0,0.1-0.1l0.1-0.3c0-0.1,0-0.1-0.1-0.1l0,0
				c0.1,0,0.1,0,0.2,0c0.1,0,0.2,0,0.3-0.1l0,0.2l0,0c0-0.1,0-0.1-0.1-0.1c-0.1,0-0.1,0-0.1,0.1L5.9,6.9z"/>
			<path class="st0" d="M6.4,6.8C6.4,6.7,6.4,6.7,6.4,6.8l0-0.1c0,0,0.1,0,0.1,0c0.1,0,0.1,0,0.1,0l0,0c-0.1,0-0.1,0-0.1,0.1L6.4,7
				c0,0.1,0,0.1,0.1,0.1l0,0c0,0-0.1,0-0.1,0c0,0-0.1,0-0.2,0l0,0c0.1,0,0.1,0,0.1-0.1L6.4,6.8z"/>
			<path class="st0" d="M6.7,7.1C6.7,7.1,6.7,7.1,6.7,7.1c-0.1,0.1,0,0.1,0,0.1l0,0c0,0-0.1,0-0.1,0c0,0-0.1,0-0.1,0l0,0
				C6.6,7.2,6.6,7.1,6.7,7.1c0-0.2,0.2-0.5,0.2-0.5l0.1,0C6.9,6.6,7,7,7,7.1c0,0.1,0,0.1,0,0.1c0,0,0,0,0.1,0.1l0,0c0,0-0.1,0-0.1,0
				c0,0-0.1,0-0.1,0l0,0c0,0,0.1,0,0.1,0c0,0,0-0.1,0-0.1l0,0C6.9,7,6.9,7,6.7,7.1C6.8,7,6.7,7,6.7,7.1L6.7,7.1z M6.8,7
				C6.9,7,6.9,7,6.8,7l0-0.2L6.8,7C6.7,7,6.8,7,6.8,7z"/>
			<path class="st0" d="M7.5,7L7.5,7c0-0.1,0-0.2-0.1-0.2c0,0-0.1,0-0.1,0.1l0,0.3c0,0.1,0,0.1,0.1,0.2l0,0c-0.1,0-0.1,0-0.1-0.1
				c0,0-0.1,0-0.1,0l0,0c0.1,0,0.1,0,0.1-0.1l0-0.3c0-0.1,0-0.1,0-0.1c-0.1,0-0.1,0-0.1,0.1l0,0l0-0.2c0,0,0.1,0,0.2,0.1
				c0.1,0,0.2,0.1,0.2,0.1L7.5,7z"/>
			<path class="st0" d="M8.3,7.4c0.1,0,0.1-0.1,0.1-0.2l0-0.3c0-0.1,0-0.1-0.1-0.1l0,0c0,0,0.1,0,0.1-0.1c0,0,0.1,0,0.2,0l0,0
				c-0.1,0-0.1,0.1-0.1,0.1l0,0.3c0,0.1,0,0.2,0.1,0.1c0.1,0,0.2-0.1,0.2-0.2l0,0l0,0.2c-0.2,0-0.3,0.1-0.4,0.1
				C8.4,7.4,8.3,7.4,8.3,7.4L8.3,7.4z"/>
			<path class="st0" d="M8.8,6.7c0.1,0,0.1,0,0.2,0c0,0,0.1,0,0.2,0l0,0C9,6.7,9,6.8,9,6.8L9,7c0,0.1,0.1,0.2,0.2,0.2
				c0.1,0,0.1-0.1,0.1-0.2l0-0.1c0,0,0-0.1,0-0.1c0,0,0,0-0.1,0l0,0c0,0,0.1,0,0.1,0c0,0,0,0,0.1,0l0,0c0,0,0,0-0.1,0
				c0,0,0,0.1,0,0.1l0,0.1c0,0.2,0,0.3-0.2,0.3C9,7.3,8.9,7.2,8.9,7l0-0.2C8.8,6.8,8.8,6.7,8.8,6.7L8.8,6.7z"/>
			<path class="st0" d="M9.9,7.3C10,7.3,10,7.4,9.9,7.3L10,7.4C10,7.4,9.9,7.4,9.9,7.3C9.8,7.4,9.8,7.4,9.8,7.3l0,0c0,0,0,0,0,0
				c0,0,0,0,0,0c0,0,0-0.1,0-0.1L9.7,7.1l0,0.1c0,0,0,0.1,0,0.1c0,0,0,0,0.1,0.1l0,0c0,0-0.1,0-0.1,0c0,0-0.1,0-0.1,0l0,0
				c0,0,0.1,0,0.1-0.1L9.7,7L9.5,6.9c0,0,0,0,0-0.1c0,0,0,0-0.1,0l0,0c0,0,0.1,0,0.1,0c0,0,0.1,0,0.1,0l0,0c0,0-0.1,0,0,0
				c0,0,0,0,0,0.1L9.7,7l0-0.1c0,0,0,0,0,0c0,0,0,0-0.1,0l0,0c0,0,0.1,0,0.1,0c0,0,0,0,0.1,0l0,0c0,0-0.1,0-0.1,0.1L9.7,7L9.9,7.3z"
				/>
		</g>
	</g>
</g>
</svg>
