<?xml version="1.0" encoding="utf-8"?>
<!-- Generator: Adobe Illustrator 26.2.1, SVG Export Plug-In . SVG Version: 6.00 Build 0)  -->
<svg version="1.1" id="Layer_1" xmlns="http://www.w3.org/2000/svg" xmlns:xlink="http://www.w3.org/1999/xlink" x="0px" y="0px"
	 viewBox="0 0 750.3 242.3" style="enable-background:new 0 0 750.3 242.3;" xml:space="preserve">
<style type="text/css">
	.st0{fill:#FFFFFF;}
</style>
<g>
	<g>
		<g>
			<g>
				<path class="st0" d="M74.4,34.7v12H60.5v42.4H45.9V46.8H32.2v-12H74.4z"/>
				<path class="st0" d="M127.9,34.7v54.5h-14.5V67.3H95.7v21.9H81.2V34.7h14.5v20.5h17.7V34.7H127.9z"/>
				<path class="st0" d="M154,46.8v8.9h16.7v11.5H154V77h18.9v12.1h-33.4V34.7h33.4v12.1H154z"/>
				<path class="st0" d="M210.9,86.1c-4.1-2.4-7.3-5.7-9.7-10c-2.4-4.2-3.6-9-3.6-14.4c0-5.4,1.2-10.2,3.6-14.4
					c2.4-4.2,5.6-7.6,9.7-9.9c4.1-2.4,8.6-3.6,13.5-3.6c4.9,0,9.4,1.2,13.5,3.6s7.3,5.7,9.7,9.9s3.6,9.1,3.6,14.4
					c0,5.4-1.2,10.2-3.6,14.4c-2.4,4.2-5.6,7.6-9.7,10c-4.1,2.4-8.6,3.6-13.5,3.6C219.5,89.7,215,88.5,210.9,86.1z M233.2,71.9
					c2.1-2.5,3.2-5.9,3.2-10.1c0-4.3-1.1-7.7-3.2-10.2c-2.1-2.5-5.1-3.7-8.8-3.7c-3.8,0-6.7,1.2-8.8,3.7c-2.1,2.5-3.2,5.9-3.2,10.2
					c0,4.3,1.1,7.7,3.2,10.2c2.1,2.5,5.1,3.7,8.8,3.7C228.1,75.6,231,74.4,233.2,71.9z"/>
				<path class="st0" d="M286.5,89.2l-10.4-20.1h-1.6v20.1h-14.5V34.7H283c4.2,0,7.7,0.8,10.7,2.3c2.9,1.5,5.1,3.6,6.6,6.3
					c1.5,2.7,2.2,5.6,2.2,8.9c0,3.7-1,7-2.9,9.8c-1.9,2.8-4.8,4.8-8.6,6l11.8,21.2H286.5z M274.6,58.7h7.2c2,0,3.5-0.5,4.4-1.5
					c1-1,1.5-2.4,1.5-4.2c0-1.8-0.5-3.1-1.5-4.1c-1-1-2.5-1.5-4.4-1.5h-7.2V58.7z"/>
				<path class="st0" d="M326.2,34.7v54.5h-14.5V34.7H326.2z"/>
				<path class="st0" d="M370.5,52.6c-0.8-1.4-2-2.5-3.4-3.3c-1.5-0.8-3.2-1.2-5.1-1.2c-3.7,0-6.5,1.2-8.6,3.7
					c-2.1,2.5-3.1,5.8-3.1,10c0,4.7,1.1,8.3,3.4,10.7c2.2,2.4,5.5,3.7,9.8,3.7c5.1,0,8.7-2.4,10.9-7.2h-14.6V58.1h27.1v14.7
					c-1.1,2.9-2.8,5.6-5,8.1c-2.2,2.5-5,4.6-8.3,6.2c-3.4,1.6-7.2,2.4-11.5,2.4c-5.2,0-9.9-1.2-13.9-3.5c-4-2.3-7.1-5.6-9.3-9.8
					c-2.2-4.2-3.3-9-3.3-14.4c0-5.4,1.1-10.1,3.3-14.3c2.2-4.2,5.3-7.5,9.3-9.8c4-2.3,8.6-3.5,13.8-3.5c6.6,0,12,1.6,16.3,4.9
					c4.3,3.3,7,7.8,8,13.5H370.5z"/>
				<path class="st0" d="M411,34.7v54.5h-14.5V34.7H411z"/>
				<path class="st0" d="M470.8,89.2h-14.5L437,58.7v30.4h-14.5V34.7H437l19.3,30.8V34.7h14.5V89.2z"/>
				<path class="st0" d="M514,80.3h-18.5l-2.8,8.9h-15.3l19-54.5h16.7l19,54.5h-15.3L514,80.3z M510.3,68.7l-5.6-17.6l-5.6,17.6
					H510.3z"/>
				<path class="st0" d="M553.2,77.6h16.2v11.6h-30.7V34.7h14.5V77.6z"/>
			</g>
		</g>
		<g>
			<path class="st0" d="M353.3,208L343,188h-1.6V208h-14.5v-54.5h22.9c4.2,0,7.7,0.8,10.7,2.3c2.9,1.5,5.1,3.6,6.6,6.3
				c1.5,2.7,2.2,5.6,2.2,8.9c0,3.7-1,7-2.9,9.8c-1.9,2.8-4.8,4.8-8.6,6l11.8,21.2H353.3z M341.4,177.6h7.2c2,0,3.5-0.5,4.4-1.5
				c1-1,1.5-2.4,1.5-4.2c0-1.8-0.5-3.1-1.5-4.1c-1-1-2.5-1.5-4.4-1.5h-7.2V177.6z"/>
			<path class="st0" d="M393.1,165.7v8.9h16.7v11.5h-16.7v9.8h18.9V208h-33.4v-54.5h33.4v12.1H393.1z"/>
			<path class="st0" d="M457.7,157c4.1,2.3,7.3,5.5,9.5,9.6c2.2,4.1,3.3,8.8,3.3,14.1c0,5.3-1.1,9.9-3.4,14.1
				c-2.2,4.1-5.4,7.4-9.6,9.7c-4.1,2.3-8.9,3.5-14.3,3.5h-20.7v-54.5h20.7C448.8,153.6,453.6,154.7,457.7,157z M452.2,191
				c2.4-2.4,3.6-5.8,3.6-10.3c0-4.5-1.2-7.9-3.6-10.4c-2.4-2.4-5.8-3.7-10-3.7h-5v28h5C446.4,194.7,449.8,193.5,452.2,191z"/>
			<path class="st0" d="M518.2,184.8c1.8,2.4,2.7,5.2,2.7,8.4c0,4.6-1.5,8.3-4.6,10.9c-3.1,2.6-7.4,3.9-12.9,3.9h-25.8v-54.5h25
				c5.3,0,9.5,1.2,12.5,3.7c3,2.5,4.6,5.9,4.6,10.4c0,3.2-0.8,5.9-2.4,8c-1.6,2.1-3.7,3.6-6.4,4.4
				C514,180.8,516.4,182.4,518.2,184.8z M492.2,175.2h7.3c3.7,0,5.5-1.6,5.5-4.7c0-3.2-1.8-4.9-5.5-4.9h-7.3V175.2z M506.1,191
				c0-1.6-0.5-2.9-1.4-3.8c-1-0.9-2.3-1.3-4.1-1.3h-8.4v9.9h8.4C504.2,195.8,506.1,194.2,506.1,191z"/>
			<path class="st0" d="M556.9,208L546.5,188H545V208h-14.5v-54.5h22.9c4.2,0,7.7,0.8,10.7,2.3c2.9,1.5,5.1,3.6,6.6,6.3
				c1.5,2.7,2.2,5.6,2.2,8.9c0,3.7-1,7-2.9,9.8c-1.9,2.8-4.8,4.8-8.6,6l11.8,21.2H556.9z M545,177.6h7.2c2,0,3.5-0.5,4.4-1.5
				c1-1,1.5-2.4,1.5-4.2c0-1.8-0.5-3.1-1.5-4.1c-1-1-2.5-1.5-4.4-1.5H545V177.6z"/>
			<path class="st0" d="M596.6,153.6V208h-14.5v-54.5H596.6z"/>
			<path class="st0" d="M609,166.4c2.1-4.2,5.2-7.5,9.1-9.8c3.9-2.3,8.5-3.5,13.6-3.5c6.5,0,12,1.8,16.4,5.4
				c4.4,3.6,7.3,8.6,8.6,14.8h-15.6c-0.9-2.1-2.2-3.6-3.9-4.7c-1.7-1.1-3.6-1.6-5.7-1.6c-3.4,0-6,1.2-8,3.7c-2,2.5-3,5.8-3,10
				c0,4.2,1,7.6,3,10.1c2,2.5,4.7,3.7,8,3.7c2.2,0,4.1-0.5,5.7-1.6c1.7-1.1,2.9-2.7,3.9-4.7h15.6c-1.3,6.2-4.1,11.2-8.6,14.8
				c-4.4,3.6-9.9,5.4-16.4,5.4c-5.1,0-9.7-1.2-13.6-3.5c-3.9-2.3-7-5.6-9.1-9.8c-2.1-4.2-3.2-9-3.2-14.4
				C605.8,175.3,606.9,170.6,609,166.4z"/>
			<path class="st0" d="M696.8,208l-16.4-23.9V208h-14.5v-54.5h14.5v23.5l16.2-23.5h16.7L694.2,180l20.1,28H696.8z"/>
		</g>
	</g>
	<g>
		<path class="st0" d="M750.3,242.3H288.7V123.5H0V0h599v118.7h151.3V242.3z M293.5,237.5h452V123.5h-452V237.5z M4.8,118.7h589.4
			V4.8H4.8V118.7z"/>
	</g>
</g>
</svg>
