<?xml version="1.0" encoding="utf-8"?>
<!-- Generator: Adobe Illustrator 21.1.0, SVG Export Plug-In . SVG Version: 6.00 Build 0)  -->
<svg version="1.1" id="stripe" xmlns="http://www.w3.org/2000/svg" xmlns:xlink="http://www.w3.org/1999/xlink" x="0px" y="0px"
	 viewBox="0 0 1200 1200" style="enable-background:new 0 0 1200 1200;" xml:space="preserve">
<style type="text/css">
	.st0{opacity:0.25;}
	.st1{stroke:#000000;stroke-miterlimit:10;}
</style>
<g class="st0">
	<polygon class="st1" points="220,580 221.5,578.5 200,557 0,757 0,760 200,560 	"/>
	<polygon class="st1" points="200,637 181.5,618.5 180,620 200,640 600,240 780,420 781.5,418.5 600,237 	"/>
	<polygon class="st1" points="200,677 161.5,638.5 160,640 200,680 600,280 760,440 761.5,438.5 600,277 	"/>
	<polygon class="st1" points="200,717 141.5,658.5 140,660 200,720 600,320 740,460 741.5,458.5 600,317 	"/>
	<polygon class="st1" points="200,757 121.5,678.5 120,680 200,760 600,360 720,480 721.5,478.5 600,357 	"/>
	<polygon class="st1" points="200,797 101.5,698.5 100,700 200,800 600,400 700,500 701.5,498.5 600,397 	"/>
	<polygon class="st1" points="200,837 81.5,718.5 80,720 200,840 600,440 680,520 681.5,518.5 600,437 	"/>
	<polygon class="st1" points="200,877 61.5,738.5 60,740 200,880 600,480 660,540 661.5,538.5 600,477 	"/>
	<polygon class="st1" points="200,917 41.5,758.5 40,760 200,920 600,520 640,560 641.5,558.5 600,517 	"/>
	<polygon class="st1" points="200,957 21.5,778.5 20,780 200,960 600,560 620,580 621.5,578.5 600,557 	"/>
	<polygon class="st1" points="420,780 421.5,778.5 440,760 441.5,758.5 460,740 461.5,738.5 480,720 481.5,718.5 500,700 
		501.5,698.5 520,680 521.5,678.5 540,660 541.5,658.5 560,640 561.5,638.5 580,620 581.5,618.5 601.5,598.5 600,597 200,997 
		1.5,798.5 0,800 200,1000 400,800 400,800 411.2,788.8 	"/>
	<polygon class="st1" points="380,420 381.5,418.5 200,237 0,437 0,440 200,240 	"/>
	<polygon class="st1" points="360,440 361.5,438.5 200,277 0,477 0,480 200,280 	"/>
	<polygon class="st1" points="340,460 341.5,458.5 200,317 0,517 0,520 200,320 	"/>
	<polygon class="st1" points="320,480 321.5,478.5 200,357 0,557 0,560 200,360 	"/>
	<polygon class="st1" points="300,500 301.5,498.5 200,397 0,597 0,600 200,400 	"/>
	<polygon class="st1" points="280,520 281.5,518.5 200,437 0,637 0,640 200,440 	"/>
	<polygon class="st1" points="260,540 261.5,538.5 200,477 0,677 0,680 200,480 	"/>
	<polygon class="st1" points="240,560 241.5,558.5 200,517 0,717 0,720 200,520 	"/>
	<polygon class="st1" points="20,780 21.5,778.5 40,760 41.5,758.5 60,740 61.5,738.5 80,720 81.5,718.5 100,700 101.5,698.5 
		120,680 121.5,678.5 140,660 141.5,658.5 160,640 161.5,638.5 180,620 181.5,618.5 201.5,598.5 200,597 0,797 0,800 1.5,798.5 	"/>
	<polygon class="st1" points="600,640 1000,240 1180,420 1181.5,418.5 1000,237 600,637 581.5,618.5 580,620 	"/>
	<polygon class="st1" points="600,677 561.5,638.5 560,640 600,680 1000,280 1160,440 1161.5,438.5 1000,277 	"/>
	<polygon class="st1" points="600,717 541.5,658.5 540,660 600,720 1000,320 1140,460 1141.5,458.5 1000,317 	"/>
	<polygon class="st1" points="600,757 521.5,678.5 520,680 600,760 1000,360 1120,480 1121.5,478.5 1000,357 	"/>
	<polygon class="st1" points="600,797 501.5,698.5 500,700 600,800 1000,400 1100,500 1101.5,498.5 1000,397 	"/>
	<polygon class="st1" points="600,837 481.5,718.5 480,720 600,840 1000,440 1080,520 1081.5,518.5 1000,437 	"/>
	<polygon class="st1" points="600,877 461.5,738.5 460,740 600,880 1000,480 1060,540 1061.5,538.5 1000,477 	"/>
	<polygon class="st1" points="600,917 441.5,758.5 440,760 600,920 1000,520 1040,560 1041.5,558.5 1000,517 	"/>
	<polygon class="st1" points="600,957 421.5,778.5 420,780 600,960 1000,560 1020,580 1021.5,578.5 1000,557 	"/>
	<polygon class="st1" points="820,780 821.5,778.5 840,760 841.5,758.5 860,740 861.5,738.5 880,720 881.5,718.5 900,700 
		901.5,698.5 920,680 921.5,678.5 940,660 941.5,658.5 960,640 961.5,638.5 980,620 981.5,618.5 1001.5,598.5 1000,597 600,997 
		401.5,798.5 400,800 600,1000 800,800 800,800 800,800 801.5,798.5 	"/>
	<polygon class="st1" points="981.5,618.5 980,620 1000,640 1200,440 1200,437 1000,637 	"/>
	<polygon class="st1" points="961.5,638.5 960,640 1000,680 1200,480 1200,477 1000,677 	"/>
	<polygon class="st1" points="941.5,658.5 940,660 1000,720 1200,520 1200,517 1000,717 	"/>
	<polygon class="st1" points="921.5,678.5 920,680 1000,760 1200,560 1200,557 1000,757 	"/>
	<polygon class="st1" points="901.5,698.5 900,700 1000,800 1200,600 1200,597 1000,797 	"/>
	<polygon class="st1" points="881.5,718.5 880,720 1000,840 1200,640 1200,637 1000,837 	"/>
	<polygon class="st1" points="861.5,738.5 860,740 1000,880 1200,680 1200,677 1000,877 	"/>
	<polygon class="st1" points="841.5,758.5 840,760 1000,920 1200,720 1200,717 1000,917 	"/>
	<polygon class="st1" points="821.5,778.5 820,780 1000,960 1200,760 1200,757 1000,957 	"/>
	<polygon class="st1" points="1200,797 1200,800 1000,1000 800,800 801.5,798.5 1000,997 	"/>
	<polygon class="st1" points="21.5,1178.5 0,1157 0,1160 20,1180 	"/>
	<polygon class="st1" points="580,1020 581.5,1018.5 400,837 37,1200 40,1200 400,840 	"/>
	<polygon class="st1" points="560,1040 561.5,1038.5 400,877 77,1200 80,1200 400,880 	"/>
	<polygon class="st1" points="540,1060 541.5,1058.5 400,917 117,1200 120,1200 400,920 	"/>
	<polygon class="st1" points="520,1080 521.5,1078.5 400,957 157,1200 160,1200 400,960 	"/>
	<polygon class="st1" points="500,1100 501.5,1098.5 400,997 197,1200 200,1200 400,1000 	"/>
	<polygon class="st1" points="480,1120 481.5,1118.5 400,1037 237,1200 240,1200 400,1040 	"/>
	<polygon class="st1" points="460,1140 461.5,1138.5 400,1077 277,1200 280,1200 400,1080 	"/>
	<polygon class="st1" points="440,1160 441.5,1158.5 400,1117 317,1200 320,1200 400,1120 	"/>
	<polygon class="st1" points="420,1180 421.5,1178.5 400,1157 357,1200 360,1200 400,1160 	"/>
	<polygon class="st1" points="400,1197 397,1200 400,1200 401.5,1198.5 	"/>
	<polygon class="st1" points="180,1020 181.5,1018.5 0,837 0,840 	"/>
	<polygon class="st1" points="160,1040 161.5,1038.5 0,877 0,880 	"/>
	<polygon class="st1" points="140,1060 141.5,1058.5 0,917 0,920 	"/>
	<polygon class="st1" points="120,1080 121.5,1078.5 0,957 0,960 	"/>
	<polygon class="st1" points="100,1100 101.5,1098.5 0,997 0,1000 	"/>
	<polygon class="st1" points="80,1120 81.5,1118.5 0,1037 0,1040 	"/>
	<polygon class="st1" points="60,1140 61.5,1138.5 0,1077 0,1080 	"/>
	<polygon class="st1" points="40,1160 41.5,1158.5 0,1117 0,1120 	"/>
	<polygon class="st1" points="0,1197 0,1200 1.5,1198.5 	"/>
	<polygon class="st1" points="981.5,1018.5 980,1020 800,840 440,1200 437,1200 800,837 	"/>
	<polygon class="st1" points="961.5,1038.5 960,1040 800,880 480,1200 477,1200 800,877 	"/>
	<polygon class="st1" points="941.5,1058.5 940,1060 800,920 520,1200 517,1200 800,917 	"/>
	<polygon class="st1" points="921.5,1078.5 920,1080 800,960 560,1200 557,1200 800,957 	"/>
	<polygon class="st1" points="901.5,1098.5 900,1100 800,1000 600,1200 597,1200 800,997 	"/>
	<polygon class="st1" points="881.5,1118.5 880,1120 800,1040 640,1200 637,1200 800,1037 	"/>
	<polygon class="st1" points="861.5,1138.5 860,1140 800,1080 680,1200 677,1200 800,1077 	"/>
	<polygon class="st1" points="841.5,1158.5 840,1160 800,1120 720,1200 717,1200 800,1117 	"/>
	<polygon class="st1" points="821.5,1178.5 820,1180 800,1160 760,1200 757,1200 800,1157 	"/>
	<polygon class="st1" points="801.5,1198.5 800,1200 797,1200 800,1197 	"/>
	<polygon class="st1" points="1200,837 1200,840 840,1200 837,1200 	"/>
	<polygon class="st1" points="1200,877 1200,880 880,1200 877,1200 	"/>
	<polygon class="st1" points="1200,917 1200,920 920,1200 917,1200 	"/>
	<polygon class="st1" points="1200,957 1200,960 960,1200 957,1200 	"/>
	<polygon class="st1" points="40,0 37,0 0,37 0,37 0,40 0,40 	"/>
	<polygon class="st1" points="80,0 77,0 0,77 0,77 0,80 0,80 	"/>
	<polygon class="st1" points="120,0 117,0 0,117 0,117 0,120 0,120 	"/>
	<polygon class="st1" points="160,0 157,0 0,157 0,157 0,160 0,160 	"/>
	<polygon class="st1" points="200,0 197,0 0,197 0,197 0,200 0,200 	"/>
	<polygon class="st1" points="240,0 237,0 0,237 0,237 0,240 0,240 	"/>
	<polygon class="st1" points="280,0 277,0 0,277 0,277 0,280 0,280 	"/>
	<polygon class="st1" points="320,0 317,0 0,317 0,317 0,320 0,320 	"/>
	<polygon class="st1" points="360,0 357,0 0,357 0,357 0,360 0,360 	"/>
	<polygon class="st1" points="220,180 221.5,178.5 240,160 241.5,158.5 260,140 261.5,138.5 280,120 281.5,118.5 300,100 
		301.5,98.5 320,80 321.5,78.5 340,60 341.5,58.5 360,40 361.5,38.5 380,20 381.5,18.5 400,0 397,0 0,397 0,397 0,400 0,400 	"/>
	<polygon class="st1" points="0,0 0,0 0,0 	"/>
	<polygon class="st1" points="381.5,18.5 380,20 400,40 440,0 437,0 400,37 	"/>
	<polygon class="st1" points="361.5,38.5 360,40 400,80 480,0 477,0 400,77 	"/>
	<polygon class="st1" points="341.5,58.5 340,60 400,120 520,0 517,0 400,117 	"/>
	<polygon class="st1" points="321.5,78.5 320,80 400,160 560,0 557,0 400,157 	"/>
	<polygon class="st1" points="301.5,98.5 300,100 400,200 600,0 597,0 400,197 	"/>
	<polygon class="st1" points="281.5,118.5 280,120 400,240 640,0 637,0 400,237 	"/>
	<polygon class="st1" points="261.5,138.5 260,140 400,280 680,0 677,0 400,277 	"/>
	<polygon class="st1" points="241.5,158.5 240,160 400,320 720,0 717,0 400,317 	"/>
	<polygon class="st1" points="221.5,178.5 220,180 400,360 760,0 757,0 400,357 	"/>
	<polygon class="st1" points="800,0 400,400 200,200 201.5,198.5 400,397 797,0 	"/>
	<polygon class="st1" points="781.5,18.5 780,20 800,40 840,0 837,0 800,37 	"/>
	<polygon class="st1" points="761.5,38.5 760,40 800,80 880,0 877,0 800,77 	"/>
	<polygon class="st1" points="741.5,58.5 740,60 800,120 920,0 917,0 800,117 	"/>
	<polygon class="st1" points="721.5,78.5 720,80 800,160 960,0 957,0 800,157 	"/>
	<polygon class="st1" points="1000,0 800,200 700,100 701.5,98.5 800,197 997,0 	"/>
	<polygon class="st1" points="1040,0 800,240 680,120 681.5,118.5 800,237 1037,0 	"/>
	<polygon class="st1" points="1080,0 800,280 660,140 661.5,138.5 800,277 1077,0 	"/>
	<polygon class="st1" points="1120,0 800,320 640,160 641.5,158.5 800,317 1117,0 	"/>
	<polygon class="st1" points="1160,0 800,360 620,180 621.5,178.5 800,357 1157,0 	"/>
	<polygon class="st1" points="1200,0 800,400 600,200 601.5,198.5 800,397 1197,0 	"/>
	<polygon class="st1" points="1200,37 1200,40 1180,20 1181.5,18.5 	"/>
	<polygon class="st1" points="1200,77 1200,80 1160,40 1161.5,38.5 	"/>
	<polygon class="st1" points="1200,117 1200,120 1140,60 1141.5,58.5 	"/>
	<polygon class="st1" points="1200,157 1200,160 1120,80 1121.5,78.5 	"/>
	<polygon class="st1" points="1200,197 1200,200 1100,100 1101.5,98.5 	"/>
	<polygon class="st1" points="1200,237 1200,240 1080,120 1081.5,118.5 	"/>
	<polygon class="st1" points="1200,277 1200,280 1060,140 1061.5,138.5 	"/>
	<polygon class="st1" points="1200,317 1200,320 1040,160 1041.5,158.5 	"/>
	<polygon class="st1" points="1200,357 1200,360 1020,180 1021.5,178.5 	"/>
	<polygon class="st1" points="1200,397 1200,400 1000,200 1001.5,198.5 	"/>
	<polygon class="st1" points="1160,1200 1200,1160 1200,1157 1157,1200 	"/>
	<polygon class="st1" points="1200,997 1200,1000 1000,1200 997,1200 	"/>
	<polygon class="st1" points="1040,1200 1200,1040 1200,1037 1037,1200 	"/>
	<polygon class="st1" points="1080,1200 1200,1080 1200,1077 1077,1200 	"/>
	<polygon class="st1" points="1120,1200 1200,1120 1200,1117 1117,1200 	"/>
	<polygon class="st1" points="1200,1200 1200,1197 1197,1200 	"/>
</g>
</svg>
